# xmcd
#
# Track frame offsets: 
#        150
#        11227
#        25150
#        37727
#        50452
#        63392
#        75785
#        88265
#        101362
#        115140
#        125927
#        138727
#        150762
#        163757
#        177442
#        191020
#        205322
#        219140
#        232890
#        244775
#        259160
#        271622
#
# Disc length: 3769 seconds
#
# Revision: 2
# Processed by: cddbd v1.5.2PL0 Copyright (c) Steve Scherf et al.
# Submitted via: ExactAudioCopy v1.0b1
#
DISCID=210eb716
DTITLE=Tampa Red - Complete Recorded Works - Volume 15
DYEAR=2007
DGENRE=Blues
TTITLE0=Boogie Woogie Woman (mono)
TTITLE1=She's A Cool Operator (mono)
TTITLE2=I Won't Let Her Do It (mono)
TTITLE3=Green And Lucky Blues (mono)
TTITLE4=I'm Gonna Put You Down (mono)
TTITLE5=Look A There, Look A There (mono)
TTITLE6=True Love (mono)
TTITLE7=But I Forgive You (mono)
TTITLE8=Too Late Too Long (mono)
TTITLE9=I'll Never Let You Go (mono)
TTITLE10=All Mixed Up Over You (mono)
TTITLE11=Got A Mind To Leave This Town (mono)
TTITLE12=Please Mr. Doctor (mono)
TTITLE13=I Should Have Loved Her More (mono)
TTITLE14=Baby Please Don't (mono)
TTITLE15=Beat That Bop (mono)
TTITLE16=So Crazy About You Baby (mono)
TTITLE17=So Much Trouble (mono)
TTITLE18=If She Don't Come Back (mono)
TTITLE19=Big Stars Falling Blues (mono)
TTITLE20=Rambler's Blues (mono)
TTITLE21=Evalena (mono)
EXTD=
EXTT0=
EXTT1=
EXTT2=
EXTT3=
EXTT4=
EXTT5=
EXTT6=
EXTT7=
EXTT8=
EXTT9=
EXTT10=
EXTT11=
EXTT12=
EXTT13=
EXTT14=
EXTT15=
EXTT16=
EXTT17=
EXTT18=
EXTT19=
EXTT20=
EXTT21=
PLAYORDER=
